<svg width="236" height="64" viewBox="0 0 236 64" fill="none" xmlns="http://www.w3.org/2000/svg" role="img" aria-label="Orion">
  <defs>
    <linearGradient id="belt" x1="17" y1="49" x2="49" y2="15" gradientUnits="userSpaceOnUse">
      <stop offset="0" stop-color="#2DD4BF"/>
      <stop offset="0.5" stop-color="#60A5FA"/>
      <stop offset="1" stop-color="#FB923C"/>
    </linearGradient>
  </defs>
  <g stroke="url(#belt)" stroke-width="1.3" stroke-linejoin="round" stroke-opacity="0.8" fill="none">
    <polygon points="33,15 42.99,18.25 49.17,26.75 49.17,37.25 42.99,45.75 33,49 23.01,45.75 16.83,37.25 16.83,26.75 23.01,18.25"/>
  </g>
  <g fill="url(#belt)">
    <circle cx="42.99" cy="18.25" r="1.8"/>
    <circle cx="49.17" cy="26.75" r="1.8"/>
    <circle cx="49.17" cy="37.25" r="1.8"/>
    <circle cx="42.99" cy="45.75" r="1.8"/>
    <circle cx="33" cy="49" r="1.8"/>
    <circle cx="23.01" cy="45.75" r="1.8"/>
    <circle cx="16.83" cy="37.25" r="1.8"/>
    <circle cx="16.83" cy="26.75" r="1.8"/>
    <circle cx="23.01" cy="18.25" r="1.8"/>
  </g>
  <circle cx="33" cy="15" r="3" fill="url(#belt)"/>
  <g fill="#FFFFFF" fill-opacity="0.65">
    <circle cx="28" cy="38" r="1.4"/>
    <circle cx="33" cy="33.5" r="1.7"/>
    <circle cx="38" cy="29" r="1.4"/>
  </g>
  <text x="58" y="46" font-family="Inter, -apple-system, BlinkMacSystemFont, 'Segoe UI', system-ui, sans-serif" font-size="42" font-weight="600" letter-spacing="-0.84" fill="#E8E8ED">rion</text>
</svg>
